Coordinates
version=1
nRows=4
nColumns=63
inDegrees=yes

Units are S.I. units (second, meters, Newtons, ...)
If the header above contains a line with 'inDegrees', this indicates whether rotational values are in degrees (yes) or radians (no).

endheader
time	pelvis_tilt	pelvis_list	pelvis_rotation	pelvis_tx	pelvis_ty	pelvis_tz	hip_flexion_r	hip_adduction_r	hip_rotation_r	knee_angle_r	knee_angle_r_beta	ankle_angle_r	subtalar_angle_r	mtp_angle_r	hip_flexion_l	hip_adduction_l	hip_rotation_l	knee_angle_l	knee_angle_l_beta	ankle_angle_l	subtalar_angle_l	mtp_angle_l	L5_S1_Flex_Ext	L5_S1_Lat_Bending	L5_S1_axial_rotation	L4_L5_Flex_Ext	L4_L5_Lat_Bending	L4_L5_axial_rotation	L3_L4_Flex_Ext	L3_L4_Lat_Bending	L3_L4_axial_rotation	L2_L3_Flex_Ext	L2_L3_Lat_Bending	L2_L3_axial_rotation	L1_L2_Flex_Ext	L1_L2_Lat_Bending	L1_L2_axial_rotation	L1_T12_Flex_Ext	L1_T12_Lat_Bending	L1_T12_axial_rotation	Abs_r3	Abs_r2	Abs_r1	Abs_t1	Abs_t2	neck_flexion	neck_bending	neck_rotation	arm_flex_r	arm_add_r	arm_rot_r	elbow_flex_r	pro_sup_r	wrist_flex_r	wrist_dev_r	arm_flex_l	arm_add_l	arm_rot_l	elbow_flex_l	pro_sup_l	wrist_flex_l	wrist_dev_l
      4.11666667	      5.47470341	     -1.81303271	     89.47283983	      0.14635954	      0.89562477	      0.42658563	      4.57276982	     -0.40485805	    -18.70163174	     19.41392487	      0.33883691	     37.45184571	     18.60990459	      0.00000000	      7.39150498	     -4.79012663	     -7.69610136	     23.34056700	      0.40736974	     37.20961829	      8.12954764	      0.00000000	     -0.00872605	      0.16874372	      1.98783901	     -0.01620515	      0.22442914	      2.11207895	     -0.01433603	      0.41028347	      2.11207895	     -0.00997301	      0.41028347	      1.73935914	     -0.00810301	      0.34410219	      1.61511920	     -0.00498607	      0.26138402	      1.49087926	     -0.06232932	      1.90886268	     11.05576424	      0.00000000	      0.00000000	     10.98126379	      4.33945729	    -18.09714992	     -9.05064761	    -13.76677639	     14.85612019	     42.84671052	     85.84756532	     -2.44952275	     10.79295645	     12.41875635	     -2.44472614	    170.94749268	      0.31310965	     33.96938830	    -36.56334346	    -17.79747492
      4.13333333	      5.61921260	     -1.76395825	     89.34383727	      0.14611307	      0.89576790	      0.42698298	      4.41106642	     -0.28150299	    -18.89012332	     19.27429218	      0.33639986	     36.90082361	     18.60661773	      0.00000000	      7.36122606	     -4.94411124	     -7.91487885	     23.42738700	      0.40888504	     37.07537000	      8.12935843	      0.00000000	     -0.02037101	      0.18458897	      2.11751238	     -0.03783100	      0.24550332	      2.24985690	     -0.03346753	      0.44880961	      2.24985690	     -0.02328203	      0.44880961	      1.85282333	     -0.01891652	      0.37641382	      1.72047881	     -0.01164000	      0.28592831	      1.58813428	     -0.14550809	      2.08810729	     11.77696859	      0.00000000	      0.00000000	     11.08168706	      4.42346357	    -18.73334750	    -10.21370634	    -13.25100427	     10.86932200	     44.46713311	     85.41933705	     -1.20710521	      9.47163462	     12.69888940	     -2.74369914	    173.63213241	      0.31203380	     23.65311394	    -34.54167461	    -22.47475563
      4.15000000	      5.82974973	     -1.64517717	     89.10285404	      0.14570739	      0.89617403	      0.42752292	      4.17687710	     -0.07625250	    -18.83011236	     19.02916521	      0.33212159	     36.26709829	     18.60777602	      0.00000000	      7.25078377	     -5.13730282	     -8.11855679	     23.48303995	      0.40985637	     37.10360054	      8.02131776	      0.00000000	     -0.03727766	      0.21280577	      2.22627845	     -0.06922834	      0.28303167	      2.36542085	     -0.06124346	      0.51741594	      2.36542085	     -0.04260463	      0.51741594	      1.94799364	     -0.03461603	      0.43395352	      1.80885124	     -0.02130045	      0.32963613	      1.66970884	     -0.26627058	      2.40730139	     12.38189286	      0.00000000	      0.00000000	     10.89515379	      4.43617547	    -19.37039391	    -10.91402963	    -13.15990853	      8.30315868	     45.82207978	     84.15791633	     -0.11677540	      7.85835144	     13.08698705	     -2.76138166	    173.49828692	      0.33359749	     18.08176076	    -30.60259624	    -23.63697303
      4.16666667	      6.08668043	     -1.56026494	     88.99991892	      0.14506808	      0.89665934	      0.42810875	      4.00802341	      0.15508018	    -18.97260396	     18.82484665	      0.32855556	     35.59109238	     18.60709246	      0.00000000	      7.23062974	     -5.37911658	     -8.22135291	     23.58077661	      0.41156219	     37.03265295	      8.00150009	      0.00000000	     -0.04192349	      0.25053621	      2.29226855	     -0.07785612	      0.33321316	      2.43553534	     -0.06887611	      0.60915374	      2.43553534	     -0.04791436	      0.60915374	      2.00573499	     -0.03893016	      0.51089343	      1.86246820	     -0.02395508	      0.38808059	      1.71920142	     -0.29945532	      2.83411569	     12.74891002	      0.00000000	      0.00000000	     10.52777492	      4.21666287	    -19.98739202	    -11.30353580	    -13.34492413	      6.32947254	     47.05617818	     82.88907065	      1.63702944	      7.44518859	     13.60111766	     -2.79246324	    172.28846545	      0.36307647	     10.86945171	    -23.18253847	    -24.07402242
